<mxfile host="app.diagrams.net" modified="2024-02-02T14:36:01.539Z" agent="Mozilla/5.0 (X11; Linux x86_64) AppleWebKit/537.36 (KHTML, like Gecko) Chrome/120.0.0.0 Safari/537.36 OPR/106.0.0.0" version="23.1.1" etag="eiL2GVe-rcMUTSphqHqb" type="github">
  <diagram name="Page-1" id="krH8jXZSvFd6ylVXpH1n">
    <mxGraphModel>
      <root>
        <mxCell id="0" />
        <mxCell id="1" parent="0" />
      </root>
    </mxGraphModel>
  </diagram>
</mxfile>
